<svg width="1024" height="99" viewBox="0 0 1024 99" fill="none" xmlns="http://www.w3.org/2000/svg">
<g filter="url(#filter0_di_46_2)">
<path d="M58.896 81.864L47.76 93H16.144L5.136 81.864L5.136 15.688L16.144 4.55199H47.76L58.896 15.688V24.904L46.224 37.704V15.688H17.808V81.864H46.224V72.52L58.896 59.848V81.864ZM132.197 93H119.653V59.848H89.573V93H76.901V15.688L88.037 4.55199L132.197 4.55199V93ZM127.589 15.688H89.573V58.312L99.173 48.712H119.653V23.624L127.589 15.688ZM230.251 92.872H217.579V23.624L225.515 15.816H215.147L198.123 48.712H188.907L172.523 15.816H162.283L170.219 23.624V92.872H157.547V4.55199H180.203L193.387 33.608H194.923L208.363 4.55199H230.251V92.872ZM310.843 48.712L299.707 59.848H268.219V93H255.547V26.568L266.683 15.688H254.011V4.55199H299.707L310.843 15.688V48.712ZM298.171 48.712V15.688H268.219V58.312L277.563 48.712H298.171ZM385.072 93H372.528V83.528L363.056 93H340.912L329.776 81.864V4.55199H342.448V81.864H372.528V4.55199L385.072 4.55199V93ZM462.646 15.688H419.126V37.704H448.438L459.318 48.712V81.864L448.438 93H417.462L406.454 81.864V73.032L419.126 60.872V81.864H446.646V48.712H417.462L406.454 37.704V15.688L417.462 4.55199H451.51L462.646 15.688ZM558.968 48.712L547.832 59.848H516.344V93L503.672 93V26.568L514.808 15.688H502.136V4.55199H547.832L558.968 15.688V48.712ZM546.296 48.712V15.688H516.344V58.312L525.688 48.712H546.296ZM634.093 93H621.421L621.677 84.04L596.333 58.568L604.909 48.712H621.421V15.688H591.469V93H578.797V26.568L589.933 15.688H577.261V4.55199H622.957L634.093 15.688V47.176L622.957 58.312H612.589V59.976L634.093 81.224V93ZM709.807 81.864L698.671 93H665.519L654.511 81.864V15.688L665.519 4.55199H698.671L709.807 15.688V81.864ZM697.135 81.864V15.688H667.183V81.864H697.135ZM777.457 59.848H745.969V93H733.297V26.568L744.433 15.688H731.761V4.55199H777.457V15.688L745.969 15.688V58.312L755.313 48.712H777.457V59.848ZM806.844 93H794.172V4.55199H806.844V93ZM885.932 93H832.172V4.55199H844.844V81.864H873.26V70.856L885.932 58.312V93ZM946.582 93H902.422V26.568L913.558 15.688H900.886V4.55199H946.582V15.688H915.094V47.176L924.438 37.704H946.582V48.712H915.094V81.864H946.582V93ZM1017.77 15.688H974.251V37.704H1003.56L1014.44 48.712V81.864L1003.56 93H972.587L961.579 81.864V73.032L974.251 60.872V81.864H1001.77V48.712H972.587L961.579 37.704V15.688L972.587 4.55199H1006.64L1017.77 15.688Z" fill="#B1B1B1"/>
</g>
<defs>
<filter id="filter0_di_46_2" x="0.836001" y="0.251987" width="1022.24" height="98.048" filterUnits="userSpaceOnUse" color-interpolation-filters="sRGB">
<feFlood flood-opacity="0" result="BackgroundImageFix"/>
<feColorMatrix in="SourceAlpha" type="matrix" values="0 0 0 0 0 0 0 0 0 0 0 0 0 0 0 0 0 0 127 0" result="hardAlpha"/>
<feOffset dx="0.5" dy="0.5"/>
<feGaussianBlur stdDeviation="2.4"/>
<feComposite in2="hardAlpha" operator="out"/>
<feColorMatrix type="matrix" values="0 0 0 0 1 0 0 0 0 1 0 0 0 0 1 0 0 0 0.51 0"/>
<feBlend mode="normal" in2="BackgroundImageFix" result="effect1_dropShadow_46_2"/>
<feBlend mode="normal" in="SourceGraphic" in2="effect1_dropShadow_46_2" result="shape"/>
<feColorMatrix in="SourceAlpha" type="matrix" values="0 0 0 0 0 0 0 0 0 0 0 0 0 0 0 0 0 0 127 0" result="hardAlpha"/>
<feOffset dx="4" dy="4"/>
<feGaussianBlur stdDeviation="1"/>
<feComposite in2="hardAlpha" operator="arithmetic" k2="-1" k3="1"/>
<feColorMatrix type="matrix" values="0 0 0 0 0.999853 0 0 0 0 0.999853 0 0 0 0 0.999853 0 0 0 1 0"/>
<feBlend mode="normal" in2="shape" result="effect2_innerShadow_46_2"/>
</filter>
</defs>
</svg>
